<?xml version="1.0" encoding="UTF-8" standalone="no"?>
<!-- Uploaded to: SVG Repo, www.svgrepo.com, Transformed by: SVG Repo Mixer Tools -->

<svg
   height="800px"
   width="800px"
   version="1.1"
   id="Layer_1"
   viewBox="0 0 512 512"
   xml:space="preserve"
   fill="#000000"
   sodipodi:docname="acorn-dull.svg"
   inkscape:version="1.1.2 (0a00cf5339, 2022-02-04)"
   xmlns:inkscape="http://www.inkscape.org/namespaces/inkscape"
   xmlns:sodipodi="http://sodipodi.sourceforge.net/DTD/sodipodi-0.dtd"
   xmlns="http://www.w3.org/2000/svg"
   xmlns:svg="http://www.w3.org/2000/svg"><defs
   id="defs28">        </defs><sodipodi:namedview
   id="namedview26"
   pagecolor="#ffffff"
   bordercolor="#666666"
   borderopacity="1.0"
   inkscape:pageshadow="2"
   inkscape:pageopacity="0.0"
   inkscape:pagecheckerboard="0"
   showgrid="false"
   inkscape:zoom="1.09125"
   inkscape:cx="399.54181"
   inkscape:cy="400"
   inkscape:window-width="1551"
   inkscape:window-height="1082"
   inkscape:window-x="1928"
   inkscape:window-y="367"
   inkscape:window-maximized="0"
   inkscape:current-layer="SVGRepo_iconCarrier" />

<g
   id="SVGRepo_bgCarrier"
   stroke-width="0" />

<g
   id="SVGRepo_tracerCarrier"
   stroke-linecap="round"
   stroke-linejoin="round" />

<g
   id="SVGRepo_iconCarrier"> <path
   style="fill:#bf8b5b;"
   d="M68.957,239.985c0-103.3,83.741-126.73,187.041-126.73s187.041,23.43,187.041,126.73H68.957z"
   id="path4" /> <path
   style="fill:#94B07F;"
   d="M426.597,239.985c0,187.061-170.598,261.816-170.598,261.816S85.401,427.046,85.401,239.985H426.597z "
   id="path6" /> <path
   style="fill:#5a2611"
   d="m 265.781,103.126 c 0,0 0,0 -20.436,0.012 -83.15,1.282 -186.586,19.193 -186.586,136.847 0,5.633 4.566,10.199 10.199,10.199 h 6.431 c 1.326,40.442 10.539,78.763 27.475,114.04 14.66,30.535 35.074,58.824 60.675,84.078 43.491,42.902 86.556,62.047 88.368,62.84 1.304,0.572 2.699,0.858 4.094,0.858 1.395,0 2.788,-0.286 4.094,-0.858 1.811,-0.794 44.876,-19.938 88.368,-62.84 25.601,-25.254 46.015,-53.542 60.675,-84.078 16.936,-35.277 26.149,-73.598 27.475,-114.04 h 6.431 c 5.633,0 10.199,-4.566 10.199,-10.199 C 453.239,121.92 349.078,104.297 265.781,103.126 Z M 79.46,229.786 c 2.357,-38.752 18.526,-65.958 49.228,-82.984 28.33,-15.711 69.975,-23.348 127.311,-23.348 57.336,0 98.981,7.637 127.311,23.348 30.703,17.025 46.871,44.233 49.228,82.984 z m 255.2,203.475 c -33.365,33.068 -67.184,51.501 -78.661,57.235 -11.487,-5.739 -45.303,-24.171 -78.662,-57.235 C 125.589,381.973 98.181,320.426 95.774,250.185 h 282.144 c -1.201,32.497 -9.092,62.326 -24.061,90.91 -2.613,4.99 -0.686,11.154 4.304,13.767 1.51,0.79 3.128,1.166 4.723,1.166 3.673,0 7.222,-1.99 9.044,-5.47 16.535,-31.573 25.195,-64.497 26.407,-100.373 h 17.889 c -2.408,70.241 -29.816,131.789 -81.564,183.076 z"
   id="path8"
   sodipodi:nodetypes="ccssccccsccscsccccsccccccccccscccc" /><path
   style="fill:#5a2611"
   d="m 143.892,209.702 c 5.633,0 10.199,-4.566 10.199,-10.199 v -1.296 c 0,-5.633 -4.566,-10.199 -10.199,-10.199 -5.633,0 -10.199,4.566 -10.199,10.199 v 1.296 c 0,5.633 4.566,10.199 10.199,10.199 z"
   id="path10" /><path
   style="fill:#5a2611"
   d="m 201.814,172.101 c 5.633,0 10.199,-4.566 10.199,-10.199 v -1.296 c 0,-5.633 -4.566,-10.199 -10.199,-10.199 -5.633,0 -10.199,4.566 -10.199,10.199 v 1.296 c 0,5.633 4.566,10.199 10.199,10.199 z"
   id="path12" /><path
   style="fill:#5a2611"
   d="m 252.261,209.702 c 5.633,0 10.199,-4.566 10.199,-10.199 v -1.296 c 0,-5.633 -4.566,-10.199 -10.199,-10.199 -5.633,0 -10.199,4.566 -10.199,10.199 v 1.296 c 0,5.633 4.566,10.199 10.199,10.199 z"
   id="path14" /><path
   style="fill:#5a2611"
   d="m 317.657,172.101 c 5.633,0 10.199,-4.566 10.199,-10.199 v -1.296 c 0,-5.633 -4.566,-10.199 -10.199,-10.199 -5.633,0 -10.199,4.566 -10.199,10.199 v 1.296 c 0,5.633 4.566,10.199 10.199,10.199 z"
   id="path16" /><path
   style="fill:#5a2611"
   d="m 368.106,209.702 c 5.633,0 10.199,-4.566 10.199,-10.199 v -1.296 c 0,-5.633 -4.566,-10.199 -10.199,-10.199 -5.633,0 -10.199,4.566 -10.199,10.199 v 1.296 c -10e-4,5.633 4.567,10.199 10.199,10.199 z"
   id="path18" /><path
   style="fill:#5a2611"
   d="m 346.669,372.602 c -4.441,-3.465 -10.85,-2.675 -14.316,1.763 -1.558,1.997 -3.174,3.998 -4.803,5.948 -3.611,4.323 -3.032,10.755 1.291,14.366 1.908,1.594 4.227,2.371 6.532,2.371 2.919,0 5.817,-1.247 7.834,-3.663 1.772,-2.121 3.529,-4.298 5.226,-6.47 3.466,-4.44 2.676,-10.849 -1.764,-14.315 z"
   id="path20" /> </g>

</svg>
